# xmcd
#
# Track frame offsets:
#	150
#	29105
#	52855
#	84417
#	106185
#	141432
#	175415
#	201022
#	225017
#	260040
#
# Disc length: 3795 seconds
#
# Revision: 0
# Processed by: cddbd v1.5.2PL0 Copyright (c) Steve Scherf et al.
# Submitted via: EasyCDDAExtractor 12.0.6 .1
#
DISCID=810ed10a
DTITLE=Habitants
DYEAR=1995
DGENRE=
TTITLE0=Control
TTITLE1=Blue Bubble
TTITLE2=Transformation
TTITLE3=Goool (Z n 8)
TTITLE4=Isabella
TTITLE5=Always Believing
TTITLE6=Ants
TTITLE7=Ei, Chica
TTITLE8=Emergency
TTITLE9=Lisa
EXTD=
EXTT0=
EXTT1=
EXTT2=
EXTT3=
EXTT4=
EXTT5=
EXTT6=
EXTT7=
EXTT8=
EXTT9=
PLAYORDER=
